# xmcd
#
# Track frame offsets:
#	150
#	9499
#	24340
#	33412
#	39786
#	53577
#	65907
#	77580
#	87673
#	96146
#	110276
#	121583
#	137448
#	146976
#	156050
#
# Disc length: 2251 seconds
#
# Revision: 0
# Processed by: cddbd v1.5.1PL0 Copyright (c) Steve Scherf et al.
# Submitted via: EasyCDDAExtractor 4.6.9.1
#
DISCID=b608c90f
DTITLE=The Punkin Holler Boys - 5
DYEAR=2003
DGENRE=bluegrass
TTITLE0=Punkin Pickin' Time
TTITLE1=Twelve Little Ounces
TTITLE2=North Split
TTITLE3=Have Another Taco
TTITLE4=Cold Hearted Woman Blues
TTITLE5=You've Changed Your Mind
TTITLE6=Diabolique
TTITLE7=We Don't Get Along
TTITLE8=Smarty Pants
TTITLE9=Shenandoah
TTITLE10=Thank God
TTITLE11=Garage Sale
TTITLE12=Hillbilly Woman
TTITLE13=Duct Tape
TTITLE14=Unknown Instrumental
EXTD=
EXTT0=
EXTT1=
EXTT2=
EXTT3=
EXTT4=
EXTT5=
EXTT6=
EXTT7=
EXTT8=
EXTT9=
EXTT10=
EXTT11=
EXTT12=
EXTT13=
EXTT14=
PLAYORDER=
